<svg width="0" height="0" class="hidden">
  <symbol fill="none" xmlns="http://www.w3.org/2000/svg" viewBox="0 0 18 20" id="sign-in">
    <path fill-rule="evenodd" clip-rule="evenodd" d="M14.2526 14.6585C13.8889 15.0741 13.2571 15.1163 12.8415 14.7526C12.4259 14.3889 12.3837 13.7571 12.7474 13.3415L14.7962 11L5 11C4.44772 11 4 10.5523 4 10C4 9.44772 4.44772 9 5 9L14.7962 9L12.7474 6.65851C12.3837 6.24287 12.4259 5.61111 12.8415 5.24742C13.2571 4.88374 13.8889 4.92586 14.2526 5.3415L17.7526 9.34149C18.0825 9.71852 18.0825 10.2815 17.7526 10.6585L14.2526 14.6585ZM5 2C5.55229 2 6 1.55229 6 1C6 0.447716 5.55229 5.44107e-07 5 5.68248e-07L2 6.99382e-07C0.895432 7.47664e-07 3.91405e-08 0.895431 8.74228e-08 2L7.86805e-07 18C8.35087e-07 19.1046 0.89543 20 2 20L5 20C5.55229 20 6 19.5523 6 19C6 18.4477 5.55229 18 5 18L2 18L2 2L5 2Z" fill="currentColor"></path>
  </symbol>
  <symbol fill="none" xmlns="http://www.w3.org/2000/svg" viewBox="0 0 14 20" id="lock">
    <path fill-rule="evenodd" clip-rule="evenodd" d="M3 7V6C3 3.79086 4.79086 2 7 2C9.20914 2 11 3.79086 11 6V7L3 7ZM1 7.34505V6C1 2.68629 3.68629 0 7 0C10.3137 0 13 2.68629 13 6V7.34505C13.6016 7.7323 14 8.40785 14 9.17647V13C14 16.866 10.866 20 7 20C3.13401 20 0 16.866 0 13V9.17647C0 8.40786 0.39842 7.7323 1 7.34505ZM2.17647 9C2.07901 9 2 9.07901 2 9.17647L2 13C2 15.7614 4.23858 18 7 18C9.76142 18 12 15.7614 12 13V9.17647C12 9.07901 11.921 9 11.8235 9H11H3H2.17647ZM7 11C8.10457 11 9 11.8954 9 13C9 14.1046 8.10457 15 7 15C5.89543 15 5 14.1046 5 13C5 11.8954 5.89543 11 7 11Z" fill="white"></path>
  </symbol>
</svg>