<svg width="14" height="20" viewBox="0 0 14 20" fill="none" xmlns="http://www.w3.org/2000/svg">
<path fill-rule="evenodd" clip-rule="evenodd" d="M3 7V6C3 3.79086 4.79086 2 7 2C9.20914 2 11 3.79086 11 6V7L3 7ZM1 7.34505V6C1 2.68629 3.68629 0 7 0C10.3137 0 13 2.68629 13 6V7.34505C13.6016 7.7323 14 8.40785 14 9.17647V13C14 16.866 10.866 20 7 20C3.13401 20 0 16.866 0 13V9.17647C0 8.40786 0.39842 7.7323 1 7.34505ZM2.17647 9C2.07901 9 2 9.07901 2 9.17647L2 13C2 15.7614 4.23858 18 7 18C9.76142 18 12 15.7614 12 13V9.17647C12 9.07901 11.921 9 11.8235 9H11H3H2.17647ZM7 11C8.10457 11 9 11.8954 9 13C9 14.1046 8.10457 15 7 15C5.89543 15 5 14.1046 5 13C5 11.8954 5.89543 11 7 11Z" fill="white"/>
</svg>
